<!DOCTYPE svg PUBLIC "-//W3C//DTD SVG 1.1//EN" "http://www.w3.org/Graphics/SVG/1.1/DTD/svg11.dtd">
<!-- Uploaded to: SVG Repo, www.svgrepo.com, Transformed by: SVG Repo Mixer Tools -->
<svg version="1.1" id="Layer_1" xmlns="http://www.w3.org/2000/svg" xmlns:xlink="http://www.w3.org/1999/xlink" viewBox="0 0 512 512" xml:space="preserve" width="64px" height="64px" fill="#000000">
<g id="SVGRepo_bgCarrier" stroke-width="0"/>
<g id="SVGRepo_tracerCarrier" stroke-linecap="round" stroke-linejoin="round"/>
<g id="SVGRepo_iconCarrier"> <path style="fill:#717272;" d="M273.067,247.467v25.6l-16.213,9.131c1.877-15.019,2.133-29.525,0.939-43.179L273.067,247.467z"/> <rect x="247.467" y="332.8" style="fill:#BDBDBD;" width="247.467" height="17.067"/> <circle style="fill:#717272;" cx="128" cy="256" r="51.2"/> <path style="fill:#FFC107;" d="M220.587,181.589c-17.835-24.235-46.08-36.523-84.053-36.523c-72.277,0-99.84,17.237-119.467,45.312 v176.555H230.4v-42.496c0-0.427,0-0.939,0.085-1.451c0.085-0.512,0.171-0.939,0.341-1.451 C248.064,266.069,244.224,213.675,220.587,181.589z M128,324.267c-37.632,0-68.267-30.635-68.267-68.267S90.368,187.733,128,187.733 s68.267,30.635,68.267,68.267S165.632,324.267,128,324.267z"/> <path d="M128,187.733c-37.632,0-68.267,30.635-68.267,68.267S90.368,324.267,128,324.267s68.267-30.635,68.267-68.267 S165.632,187.733,128,187.733z M128,307.2c-28.245,0-51.2-22.955-51.2-51.2s22.955-51.2,51.2-51.2s51.2,22.955,51.2,51.2 S156.245,307.2,128,307.2z"/> <path d="M503.467,315.733H250.795l3.84-11.605c0,0,9.045-4.949,32.085-20.224c2.133-1.451,3.413-3.84,3.413-6.315v-35.243 c0-2.304-1.024-4.437-2.816-5.888c-10.496-8.533-33.109-20.395-33.109-20.395c-4.011-16.896-10.581-32-19.883-44.629 C213.419,143.019,179.627,128,136.533,128c-81.408,0-112.896,22.016-135.083,55.04C0.512,184.405,0,186.027,0,187.733v187.733 C0,380.16,3.84,384,8.533,384h230.4c4.693,0,8.533-3.84,8.533-8.533v-8.533h247.467v8.533c0,4.693,3.84,8.533,8.533,8.533 s8.533-3.84,8.533-8.533v-51.2C512,319.573,508.16,315.733,503.467,315.733z M257.792,239.019l15.275,8.448v25.6l-16.213,9.131 C258.731,267.179,258.987,252.672,257.792,239.019z M230.827,321.536c-0.171,0.512-0.256,0.939-0.341,1.451 c-0.085,0.512-0.085,1.024-0.085,1.451v42.496H17.067V190.379c19.627-28.075,47.189-45.312,119.467-45.312 c37.973,0,66.219,12.288,84.053,36.523C244.224,213.675,248.064,266.069,230.827,321.536z M494.933,349.867H247.467V332.8h247.467 V349.867z"/> <path style="fill:#F9A825;" d="M220.587,181.589c-4.924-6.69-10.718-12.373-17.203-17.237c0.043,0.06,0.094,0.111,0.137,0.171 c23.637,32.085,27.477,84.48,10.24,139.947c-0.171,0.512-0.256,0.939-0.341,1.451c-0.085,0.512-0.085,1.024-0.085,1.451v42.496 H17.067v17.067H230.4v-42.496c0-0.427,0-0.939,0.085-1.451c0.085-0.512,0.171-0.939,0.341-1.451 C248.064,266.069,244.224,213.675,220.587,181.589z"/> <path style="fill:#555656;" d="M168.704,225.058c1.246,4.42,1.963,9.062,1.963,13.875c0,28.245-22.955,51.2-51.2,51.2 c-16.614,0-31.351-7.979-40.704-20.258C84.821,291.379,104.567,307.2,128,307.2c28.245,0,51.2-22.955,51.2-51.2 C179.2,244.369,175.258,233.668,168.704,225.058z"/> <polygon style="fill:#90A4AE;" points="486.4,332.8 486.4,341.333 247.467,341.333 247.467,349.867 494.933,349.867 494.933,332.8 "/> <path style="fill:#555656;" d="M258.278,264.243c-0.239,5.897-0.666,11.87-1.425,17.954l16.213-9.131v-14.054L258.278,264.243z"/> </g>
</svg>